<?xml version="1.0" encoding="UTF-8"?>
<svg width="36px" height="36px" viewBox="0 0 36 36" version="1.1" xmlns="http://www.w3.org/2000/svg">
    <g id="brain">
        <path fill="#8ecae6" d="M18,2c3,0,4,1,4,1s1-1,4-1c4,0,8,2,8,6c0,2-1,3-1,3s1,1,1,3c0,0,0,0,0,0c0,0,0,0,0,0c0,0,0,0,0,0c0,1-1,2-1,2s1,1,1,3 c0,4-3,6-6,6c-1,0-2-1-2-1c0,0-1-1-1,1c0,1,0,3-3,3s-3-2-3-3c0-2-1-1-1-1c0,0-1,1-2,1c-3,0-6-2-6-6c0-2,1-3,1-3s-1-1-1-2 c0,0,0,0,0,0c0,0,0,0,0,0c0,0,0,0,0,0c0-2,1-3,1-3s-1-1-1-3c0-4,4-6,8-6c3,0,4,1,4,1S15,2,18,2z M13,23c0,0-1,1-2,1c-1,0-2-1-2-1 c0,0-1-1-1,1c0,1,1,2,3,2s3-1,3-2C14,22,13,23,13,23z M25,23c0,0-1,1-2,1c-1,0-2-1-2-1c0,0-1-1-1,1c0,1,1,2,3,2s3-1,3-2 C26,22,25,23,25,23z M18,22c-1,0-1-1-1-1c0-1,1-2,1-2s1,1,1,2C19,21,19,22,18,22z M27,14c0,0-1,1-3,1c-1,0-2-1-2-1 c0,0-1-1-1,1c0,1,1,2,3,2s3-1,3-2C27,13,27,14,27,14z M12,14c0,0-1,1-2,1c-2,0-3-1-3-1c0,0-1-1-1,1c0,1,1,2,3,2s3-1,3-2 C12,13,12,14,12,14z M18,16c-1,0-1-1-1-1c0-1,1-2,1-2s1,1,1,2C19,15,19,16,18,16z"/>
    </g>
</svg>